<svg width="20" height="20" viewBox="0 0 20 20" fill="none" xmlns="http://www.w3.org/2000/svg">
<path d="M19.148 14.358L17.3894 15.8104L17.9245 17.9752C17.9539 18.0946 17.9474 18.2199 17.9059 18.3356C17.8644 18.4513 17.7897 18.5522 17.6911 18.6257C17.5926 18.6992 17.4745 18.7419 17.3518 18.7486C17.2291 18.7554 17.1071 18.7257 17.0011 18.6635L15.0003 17.4861L12.9995 18.6635C12.8935 18.7257 12.7715 18.7554 12.6488 18.7486C12.5261 18.7419 12.408 18.6992 12.3095 18.6257C12.2109 18.5522 12.1362 18.4513 12.0947 18.3356C12.0532 18.2199 12.0467 18.0946 12.0761 17.9752L12.6112 15.8104L10.8526 14.358C10.7567 14.2787 10.6867 14.1726 10.6515 14.0532C10.6163 13.9338 10.6175 13.8067 10.655 13.688C10.6926 13.5694 10.7646 13.4646 10.8621 13.3872C10.9595 13.3097 11.0778 13.2631 11.2019 13.2533L13.5331 13.0729L14.4261 11.0026C14.4743 10.8903 14.5544 10.7946 14.6565 10.7274C14.7586 10.6602 14.8781 10.6243 15.0003 10.6243C15.1225 10.6243 15.242 10.6602 15.3441 10.7274C15.4462 10.7946 15.5263 10.8903 15.5745 11.0026L16.4675 13.0729L18.7987 13.2533C18.9228 13.2631 19.0411 13.3097 19.1385 13.3872C19.236 13.4646 19.308 13.5694 19.3456 13.688C19.3831 13.8067 19.3843 13.9338 19.3491 14.0532C19.3139 14.1726 19.2439 14.2787 19.148 14.358Z" fill="black"/>
<path d="M10.625 5.625V8.98907L13.4703 7.56563C13.5438 7.5289 13.6237 7.507 13.7057 7.50118C13.7876 7.49535 13.8699 7.50573 13.9478 7.5317C14.0257 7.55767 14.0977 7.59873 14.1598 7.65254C14.2218 7.70635 14.2726 7.77186 14.3094 7.84532C14.3461 7.91877 14.368 7.99875 14.3738 8.08067C14.3797 8.16259 14.3693 8.24486 14.3433 8.32277C14.3173 8.40069 14.2763 8.47272 14.2225 8.53477C14.1687 8.59681 14.1032 8.64765 14.0297 8.68438L10.2797 10.5594C10.1844 10.6071 10.0784 10.6296 9.97195 10.6248C9.86547 10.62 9.76198 10.5881 9.67132 10.532C9.58066 10.476 9.50584 10.3977 9.45398 10.3046C9.40211 10.2114 9.37493 10.1066 9.375 10V5.625C9.375 5.45924 9.44085 5.30027 9.55806 5.18306C9.67527 5.06585 9.83424 5 10 5C10.1658 5 10.3247 5.06585 10.4419 5.18306C10.5592 5.30027 10.625 5.45924 10.625 5.625ZM10 16.875C8.64026 16.875 7.31105 16.4718 6.18046 15.7164C5.04987 14.9609 4.16868 13.8872 3.64833 12.631C3.12798 11.3747 2.99183 9.99238 3.2571 8.65876C3.52238 7.32514 4.17716 6.10013 5.13864 5.13864C6.10013 4.17716 7.32514 3.52238 8.65876 3.2571C9.99238 2.99183 11.3747 3.12798 12.631 3.64833C13.8872 4.16868 14.9609 5.04987 15.7164 6.18046C16.4718 7.31105 16.875 8.64026 16.875 10C16.875 10.1658 16.9409 10.3247 17.0581 10.4419C17.1753 10.5592 17.3342 10.625 17.5 10.625C17.6658 10.625 17.8247 10.5592 17.9419 10.4419C18.0592 10.3247 18.125 10.1658 18.125 10C18.125 8.39303 17.6485 6.82214 16.7557 5.486C15.8629 4.14985 14.594 3.10844 13.1093 2.49348C11.6247 1.87852 9.99099 1.71762 8.4149 2.03112C6.8388 2.34463 5.39106 3.11846 4.25476 4.25476C3.11846 5.39106 2.34463 6.8388 2.03112 8.4149C1.71762 9.99099 1.87852 11.6247 2.49348 13.1093C3.10844 14.594 4.14985 15.8629 5.486 16.7557C6.82214 17.6485 8.39303 18.125 10 18.125C10.1658 18.125 10.3247 18.0592 10.4419 17.9419C10.5592 17.8247 10.625 17.6658 10.625 17.5C10.625 17.3342 10.5592 17.1753 10.4419 17.0581C10.3247 16.9409 10.1658 16.875 10 16.875Z" fill="black"/>
</svg>
