<svg width="24" height="24" viewBox="0 0 24 24" fill="none" xmlns="http://www.w3.org/2000/svg">
<path d="M12 2.25C10.0716 2.25 8.18657 2.82183 6.58319 3.89317C4.97982 4.96452 3.73013 6.48726 2.99218 8.26884C2.25422 10.0504 2.06114 12.0108 2.43735 13.9021C2.81355 15.7934 3.74215 17.5307 5.10571 18.8943C6.46928 20.2579 8.20656 21.1865 10.0979 21.5627C11.9892 21.9389 13.9496 21.7458 15.7312 21.0078C17.5127 20.2699 19.0355 19.0202 20.1068 17.4168C21.1782 15.8134 21.75 13.9284 21.75 12C21.7468 9.41513 20.7185 6.93705 18.8907 5.10927C17.063 3.28149 14.5849 2.25323 12 2.25ZM7.875 13.125C7.6525 13.125 7.43499 13.059 7.24999 12.9354C7.06498 12.8118 6.92079 12.6361 6.83564 12.4305C6.75049 12.225 6.72821 11.9988 6.77162 11.7805C6.81503 11.5623 6.92217 11.3618 7.07951 11.2045C7.23684 11.0472 7.4373 10.94 7.65553 10.8966C7.87376 10.8532 8.09996 10.8755 8.30552 10.9606C8.51109 11.0458 8.68679 11.19 8.81041 11.375C8.93402 11.56 9 11.7775 9 12C9 12.2984 8.88148 12.5845 8.6705 12.7955C8.45952 13.0065 8.17337 13.125 7.875 13.125ZM12 13.125C11.7775 13.125 11.56 13.059 11.375 12.9354C11.19 12.8118 11.0458 12.6361 10.9606 12.4305C10.8755 12.225 10.8532 11.9988 10.8966 11.7805C10.94 11.5623 11.0472 11.3618 11.2045 11.2045C11.3618 11.0472 11.5623 10.94 11.7805 10.8966C11.9988 10.8532 12.225 10.8755 12.4305 10.9606C12.6361 11.0458 12.8118 11.19 12.9354 11.375C13.059 11.56 13.125 11.7775 13.125 12C13.125 12.2984 13.0065 12.5845 12.7955 12.7955C12.5845 13.0065 12.2984 13.125 12 13.125ZM16.125 13.125C15.9025 13.125 15.685 13.059 15.5 12.9354C15.315 12.8118 15.1708 12.6361 15.0856 12.4305C15.0005 12.225 14.9782 11.9988 15.0216 11.7805C15.065 11.5623 15.1722 11.3618 15.3295 11.2045C15.4868 11.0472 15.6873 10.94 15.9055 10.8966C16.1238 10.8532 16.35 10.8755 16.5555 10.9606C16.7611 11.0458 16.9368 11.19 17.0604 11.375C17.184 11.56 17.25 11.7775 17.25 12C17.25 12.2984 17.1315 12.5845 16.9205 12.7955C16.7095 13.0065 16.4234 13.125 16.125 13.125Z" fill="#E31D1A"/>
</svg>
