<svg width="74" height="54" viewBox="0 0 74 54" fill="none" xmlns="http://www.w3.org/2000/svg">
<g clip-path="url(#clip0_134_1438)">
<mask id="mask0_134_1438" style="mask-type:luminance" maskUnits="userSpaceOnUse" x="0" y="0" width="74" height="54">
<path d="M73.8367 0H0V54H73.8367V0Z" fill="white"/>
</mask>
<g mask="url(#mask0_134_1438)">
<path d="M8.86201 15.3262C9.13251 15.7643 9.30658 16.2104 9.38692 16.6644C9.46725 17.1185 9.44587 17.5432 9.32267 17.9332C9.19946 18.3231 8.96109 18.7291 8.60491 19.1485L8.12822 19.7094C7.99697 19.8643 7.90324 19.9551 7.84433 19.9845C7.78537 20.0139 7.73181 20.0219 7.68096 20.0085C7.63004 19.9952 7.52562 19.9177 7.35955 19.7788L5.80357 18.4647L6.06068 18.1628C6.29365 17.8878 6.46237 17.7248 6.5615 17.6714C6.66058 17.618 6.77838 17.6073 6.90694 17.6394C7.03819 17.6687 7.20157 17.7675 7.39971 17.9358L7.69165 18.1842L8.41745 17.3295L5.55181 14.9069L4.82604 15.7616L5.08314 15.978C5.31881 16.1783 5.46076 16.3305 5.50629 16.4347C5.55181 16.5389 5.55716 16.6511 5.51969 16.7712C5.48219 16.8915 5.35631 17.0757 5.14206 17.3295L4.85817 17.666L3.17094 16.2397L4.03866 15.2194C4.30647 14.9016 4.57697 14.6558 4.85014 14.4742C5.12063 14.2952 5.44737 14.1964 5.82765 14.1804C6.20797 14.1644 6.63644 14.2284 7.11048 14.378L7.53367 13.2428L4.74569 12.1985L0 17.7836L0.937353 18.5742L1.1891 18.2777C1.33372 18.1094 1.4462 18.0079 1.52387 17.9759C1.60421 17.9439 1.68456 17.9412 1.77026 17.9652C1.85596 17.9893 1.9979 18.0881 2.19877 18.2563L5.88391 21.3708C6.11154 21.5631 6.24009 21.686 6.27492 21.7421C6.32848 21.8435 6.33917 21.945 6.30704 22.0492C6.27492 22.1534 6.16245 22.3163 5.9723 22.5406L5.83035 22.7089L6.76769 23.4996L11.6821 17.7114L9.91187 14.7092L8.86201 15.3262Z" fill="#E31D1A"/>
<path d="M8.29683 10.6549C8.43613 10.556 8.54859 10.5053 8.63427 10.4973C8.71731 10.4892 8.80299 10.5132 8.88873 10.5667C8.97442 10.6201 9.07884 10.735 9.1994 10.9086L12.065 15.022C12.1775 15.1822 12.2391 15.3051 12.2498 15.3905C12.2632 15.4787 12.2444 15.5642 12.1989 15.6523C12.1534 15.7404 12.0596 15.834 11.9204 15.9301L11.5749 16.1678L12.2739 17.1721L17.7856 13.3552L16.867 10.0085L15.6858 10.3397C15.8439 10.9139 15.9055 11.4134 15.8653 11.8381C15.8278 12.2628 15.71 12.6341 15.5118 12.9519C15.3163 13.2671 14.9869 13.5876 14.5235 13.9081C14.3843 14.0043 14.2852 14.0577 14.2209 14.0684C14.1567 14.0791 14.1031 14.0684 14.0629 14.0443C14.0228 14.0203 13.9424 13.9188 13.8246 13.7532L10.9348 9.60246C10.825 9.44751 10.7661 9.31934 10.7554 9.22314C10.7447 9.12698 10.7661 9.03083 10.825 8.94002C10.8571 8.89197 10.9589 8.80916 11.1303 8.68898L11.4383 8.47529L10.7393 7.47095L7.21484 9.9123L7.91387 10.9166L8.29418 10.6522L8.29683 10.6549Z" fill="#E31D1A"/>
<path d="M19.9172 9.90691C20.4984 10.4625 21.1652 10.8257 21.9125 10.9994C22.6597 11.173 23.4149 11.1356 24.1782 10.8925C24.6147 10.7536 25.0137 10.556 25.3753 10.3022C25.7395 10.0485 26.0689 9.73599 26.3636 9.36471L26.8751 9.86685L28.1044 9.47155L27.2527 6.83525C27.1804 6.61352 27.1509 6.45863 27.1617 6.36782C27.1724 6.27701 27.2098 6.20218 27.2714 6.14344C27.333 6.08465 27.4643 6.02057 27.6651 5.95648L27.9705 5.85763L27.5901 4.67972L23.506 5.9912L23.8862 7.16911L24.3603 7.01687C24.5772 6.94744 24.7272 6.91801 24.8129 6.9314C24.8986 6.94474 24.9763 6.98215 25.0459 7.04894C25.0914 7.09698 25.1503 7.22785 25.2173 7.43889L25.3164 7.74603C25.3968 7.99179 25.4101 8.20277 25.3619 8.3791C25.3137 8.55537 25.1771 8.74233 24.9575 8.94268C24.7379 9.14298 24.4835 9.28724 24.1943 9.38069C23.7872 9.51161 23.3747 9.51426 22.9596 9.38873C22.5445 9.26321 22.1535 8.98809 21.7866 8.56871C21.4197 8.14938 21.1278 7.60718 20.9162 6.94474C20.7207 6.3411 20.651 5.79619 20.7073 5.31008C20.7636 4.82395 20.9189 4.41796 21.1786 4.08943C21.4357 3.76356 21.7572 3.5392 22.1374 3.41633C22.4053 3.33085 22.6998 3.30415 23.0212 3.33887C23.3426 3.37359 23.6479 3.46708 23.9372 3.61665C24.2264 3.7689 24.6576 4.08942 25.2307 4.58089L26.2189 3.86506L24.5638 1.31958L23.7256 1.58935L23.6238 2.03541C23.3131 1.96062 22.9596 1.93659 22.5632 1.95795C22.1669 1.98199 21.7839 2.05143 21.417 2.16896C20.6591 2.41202 20.0137 2.82603 19.4861 3.41098C18.9585 3.99594 18.6183 4.67171 18.4657 5.43829C18.313 6.20753 18.372 7.00353 18.6371 7.82621C18.9049 8.65951 19.3307 9.35402 19.9145 9.90691H19.9172Z" fill="#E31D1A"/>
<path d="M28.3186 1.73346L28.4954 1.7121C28.6267 1.70141 28.7445 1.7121 28.8489 1.74949C28.9239 1.76819 28.9801 1.81627 29.0177 1.8964C29.0551 1.97653 29.0846 2.11275 29.1033 2.30507L29.5479 7.26247C29.572 7.5269 29.5747 7.68719 29.5587 7.73794C29.5238 7.82875 29.4649 7.90088 29.3845 7.95427C29.3016 8.00502 29.1569 8.04243 28.9507 8.05841L28.5597 8.09318L28.6695 9.31116L32.9572 8.92919L32.8474 7.71122L32.4457 7.74593C32.2234 7.76461 32.0734 7.75926 31.9985 7.72455C31.9208 7.69254 31.8619 7.63374 31.8217 7.55627C31.7815 7.47885 31.7467 7.28649 31.7199 6.982L31.5619 5.22716L32.2903 5.16305L35.4426 8.70752L38.2492 8.45642L38.1394 7.23844L37.7618 7.27315C37.5904 7.28919 37.4538 7.28649 37.3574 7.26516C37.2583 7.24379 37.1566 7.20373 37.0548 7.14229C36.953 7.08085 36.8352 6.9847 36.7067 6.85113L36.6236 6.76302L34.6337 4.81582C35.2711 4.63152 35.8094 4.311 36.246 3.85425C36.6825 3.39751 36.8727 2.83392 36.8138 2.1635C36.7763 1.75216 36.6504 1.38891 36.4388 1.0764C36.2273 0.763884 35.9434 0.515481 35.5898 0.33118C35.239 0.14688 34.8534 0.0400389 34.4356 0.0133287C34.0178 -0.0133815 33.6348 -0.0107105 33.2866 0.0213417L27.8848 0.502125L27.9973 1.75751L28.3267 1.72813L28.3186 1.73346ZM32.684 1.53581C33.1822 1.4904 33.5437 1.49842 33.7714 1.55985C33.999 1.62128 34.1785 1.72813 34.3124 1.88304C34.4463 2.03796 34.524 2.23295 34.5454 2.46265C34.5668 2.7164 34.524 2.93542 34.4114 3.12507C34.299 3.31204 34.1222 3.46696 33.8758 3.58181C33.6321 3.69934 33.2545 3.77946 32.7429 3.82755L31.4441 3.9424L31.2405 1.66402L32.684 1.53581Z" fill="#E31D1A"/>
<path d="M42.0122 7.70587C41.6908 7.66581 41.4953 7.63374 41.4284 7.60707C41.3239 7.56966 41.2489 7.51891 41.2088 7.45747C41.1686 7.39603 41.1525 7.33459 41.1605 7.26516C41.1686 7.20637 41.2168 7.08619 41.3078 6.90722L41.7444 6.06052L44.3958 6.38904L44.5565 7.21976C44.6073 7.46546 44.6261 7.62575 44.618 7.70053C44.6073 7.78869 44.5511 7.85812 44.452 7.90622C44.3529 7.95427 44.1896 7.96496 43.9592 7.93824L43.7075 7.91421L43.5548 9.12954L47.6819 9.64238L47.8345 8.42705C47.5372 8.39498 47.3391 8.32825 47.24 8.23204C47.1409 8.13324 47.0418 7.89553 46.9454 7.51891L45.1724 0.419332L43.2121 0.17627L39.6527 6.75498C39.5483 6.94998 39.4572 7.08355 39.3849 7.15028C39.3099 7.21706 39.2216 7.26516 39.1171 7.28919C39.0127 7.31321 38.852 7.31321 38.6351 7.28919L38.4824 8.50452L41.8596 8.92385L42.0122 7.71122V7.70587ZM43.5495 2.56683L44.0931 5.08293L42.3604 4.86658L43.5495 2.56683Z" fill="#E31D1A"/>
<path d="M51.6994 9.80267L51.3057 9.65847C51.1183 9.58899 50.9923 9.52221 50.9308 9.45278C50.8692 9.38599 50.837 9.31122 50.8317 9.23375C50.8263 9.15633 50.8692 8.99339 50.9602 8.74764L52.5403 4.47133L53.3465 11.7125L55.0444 12.3348L57.4147 5.91633C57.5056 5.66528 57.5833 5.51034 57.6423 5.44625C57.7012 5.38215 57.7789 5.34209 57.8754 5.32873C57.9718 5.31537 58.1134 5.34208 58.3013 5.41153L58.676 5.55045L59.0992 4.40189L55.6977 3.15452L55.2745 4.30306L55.6762 4.44996C55.8691 4.51941 55.9925 4.58619 56.046 4.65029C56.0994 4.71439 56.1292 4.79719 56.1319 4.90671C56.1369 4.9815 56.0917 5.14443 55.998 5.39818L54.9051 8.36032L54.2731 2.62833L50.9254 1.39966L50.5023 2.5482L50.9442 2.71113C51.0995 2.76722 51.2066 2.82866 51.2575 2.89009C51.3111 2.95152 51.3405 3.03433 51.3486 3.13315C51.3566 3.23198 51.3271 3.37355 51.2602 3.55517L49.5033 8.31492C49.4417 8.48056 49.3748 8.59803 49.2998 8.66482C49.2248 8.7316 49.1471 8.76902 49.0614 8.77701C48.9757 8.78505 48.8365 8.75298 48.6409 8.68085L48.2874 8.55263L47.8643 9.70118L51.2762 10.9539L51.6994 9.80537V9.80267Z" fill="#E31D1A"/>
<path d="M64.329 14.979C64.7655 14.6666 65.1649 14.2472 65.5237 13.7183C66.0378 12.9598 66.327 12.2039 66.3888 11.456C66.4505 10.7081 66.3215 10.0216 65.9948 9.40194C65.6708 8.77962 65.0735 8.17862 64.2062 7.59366L60.387 5.02148L59.701 6.03647L59.9528 6.2074C60.1727 6.357 60.3066 6.46919 60.3523 6.54931C60.3975 6.62943 60.4135 6.70955 60.4003 6.79506C60.387 6.88053 60.3038 7.03542 60.1512 7.25979L57.4407 11.2637C57.2881 11.488 57.1757 11.6243 57.1035 11.6723C57.0043 11.7284 56.9107 11.7498 56.8197 11.7418C56.7283 11.7311 56.5784 11.6563 56.364 11.5121L56.1128 11.3411L55.4268 12.3561L58.7935 14.6238C59.0855 14.8214 59.5032 15.0432 60.0443 15.2889C60.5849 15.5346 61.0295 15.6842 61.3805 15.7376C61.8467 15.8071 62.3448 15.7777 62.8777 15.6495C63.4105 15.5212 63.8954 15.3022 64.3346 14.9897L64.329 14.979ZM60.9441 13.972C60.5022 13.932 59.9958 13.721 59.4255 13.3364C59.2194 13.1975 59.096 13.1013 59.0558 13.0452C59.0156 12.9891 58.9996 12.9251 59.0078 12.8556C59.0128 12.8102 59.069 12.7087 59.1737 12.5538L62.2644 7.98896L63.0678 8.53122C63.5791 8.87577 63.9169 9.22033 64.0827 9.56758C64.2486 9.91478 64.2916 10.3475 64.2084 10.8684C64.1285 11.3892 63.9059 11.9154 63.5444 12.4496C63.1774 12.9891 62.7625 13.3898 62.2991 13.6462C61.8357 13.9026 61.3833 14.0122 60.9414 13.972H60.9441Z" fill="#E31D1A"/>
<path d="M69.0105 11.0874L68.0865 11.8914L68.3438 12.1852C68.4909 12.3535 68.5741 12.479 68.5928 12.5618C68.6116 12.6446 68.6033 12.7274 68.5658 12.8075C68.5284 12.8876 68.4105 13.0132 68.2121 13.1868L64.5726 16.3547C64.3505 16.5496 64.2056 16.6592 64.1445 16.6858C64.037 16.7232 63.9329 16.7179 63.8364 16.6698C63.7373 16.6217 63.5923 16.4882 63.3995 16.2665L63.2551 16.1009L62.3311 16.9049L67.331 22.6209L70.5743 21.3281L70.1192 20.2009C69.6453 20.4012 69.1764 20.5081 68.713 20.5188C68.2501 20.5295 67.8346 20.444 67.4649 20.265C67.0957 20.0861 66.7315 19.7896 66.37 19.3756L65.8851 18.8227C65.7512 18.6704 65.6763 18.5636 65.6548 18.5022C65.6333 18.4407 65.6333 18.3846 65.6548 18.3392C65.6763 18.2938 65.7672 18.1977 65.9303 18.0561L67.4677 16.7179L67.7277 17.017C67.9658 17.2895 68.1024 17.4765 68.1399 17.5833C68.1774 17.6902 68.1697 17.805 68.1212 17.9305C68.0705 18.0534 67.9498 18.2003 67.7514 18.3713L67.4627 18.6223L68.1989 19.4664L71.03 17.0037L70.2933 16.1597L70.0387 16.3813C69.8056 16.5843 69.6343 16.7019 69.5219 16.7313C69.4095 16.7607 69.2998 16.75 69.1874 16.6939C69.0744 16.6378 68.9086 16.4855 68.6915 16.2371L68.4027 15.9059L70.0685 14.4556L70.9496 15.4652C71.2223 15.7777 71.4289 16.0822 71.5656 16.376C71.7017 16.6698 71.7502 17.0064 71.71 17.3857C71.6698 17.7622 71.5386 18.1736 71.3215 18.6197L72.3822 19.2073L73.8364 16.6164L69.0105 11.1007V11.0874Z" fill="#E31D1A"/>
<path d="M29.5906 20.078C29.0737 19.3622 28.3318 19.0097 27.3356 19.1298C28.3211 19.5198 29.0657 20.4413 29.2799 21.4643C29.8102 24.0178 29.4861 26.0504 28.5166 28.2594C27.8524 29.44 27.4427 30.2706 26.1143 30.5004C25.9804 30.5244 25.9831 30.3962 25.9831 30.3962C25.8331 30.4897 25.6965 30.4897 25.5412 30.4577C24.8342 30.3081 24.0682 29.3705 23.9209 28.5959C23.2567 25.1102 24.5048 22.4499 25.9108 20.9862C23.629 21.7661 21.8935 25.3506 22.6033 28.9886C22.8416 30.2066 23.8138 31.3818 25.0029 31.7157C23.2755 38.2383 22.6997 42.4505 22.2471 47.9368C24.2423 43.2865 25.0029 38.3932 26.2696 31.8626C27.8632 31.6703 28.7577 30.4977 29.462 29.1649C30.9644 26.3283 31.2965 22.327 29.5879 20.0807L29.5906 20.078Z" fill="#E31D1A"/>
<path d="M45.8279 42.1327C46.5591 38.7512 47.3331 36.0348 47.6759 32.5465C48.7257 32.5545 49.6631 32.2927 50.6942 31.3525C53.458 28.831 53.5624 23.238 53.209 20.5482C52.8715 23.0857 51.9288 27.1537 50.9004 29.0848C50.346 30.0277 49.3444 30.9572 48.2356 30.9839C47.5072 30.9999 46.7064 30.7195 46.3904 29.8541C45.6432 27.8134 46.4065 22.7919 46.9126 20.5563C46.2805 21.8971 45.0914 25.4923 44.9361 27.3246C44.8049 28.8711 44.9254 31.4674 46.7921 32.3701C45.8708 35.2789 45.0325 38.3773 44.5639 41.9912C41.7009 41.8309 38.8326 41.8122 35.8733 41.9484C36.4437 39.638 37.0088 36.4328 37.5873 33.6816C39.2906 27.6638 40.019 21.8837 39.7378 18.9617C36.8133 21.2026 31.8775 29.7419 36.1625 33.7591C35.4769 36.6865 34.8502 39.1626 34.4056 41.9672C33.6504 42.0499 32.2042 42.2556 30.6455 42.5441C32.3809 42.5788 34.3574 42.5521 34.3574 42.5521C33.9423 44.9427 33.8298 46.4251 33.5888 48.5165C34.336 46.6281 35.4126 43.73 35.7126 42.5975C38.6532 42.6509 41.5001 42.731 44.3443 43.0809C44.1728 44.9239 44.0523 46.2435 43.9934 48.5993C44.8504 45.9497 45.5441 43.1958 45.5441 43.1958C50.5924 43.5831 52.5153 44.3363 53.1795 45.8401C53.608 46.8097 52.6894 47.7739 52.352 48.0811C53.4875 48.0384 54.8186 47.4561 55.0837 46.7269C55.2793 46.2408 55.2071 45.605 54.7275 44.9827C52.9304 42.6376 48.8195 42.3945 45.8333 42.1354L45.8279 42.1327ZM39.537 20.3185C38.9665 24.8031 37.1909 31.2804 36.7517 32.6907C35.0109 29.2451 36.3125 24.9902 39.537 20.3185Z" fill="#E31D1A"/>
<path d="M51.5943 20.9622C51.0024 22.8452 49.4973 27.6637 48.71 29.9127C50.2552 28.3395 51.8568 23.716 51.5943 20.9622Z" fill="#E31D1A"/>
<path d="M47.403 29.3784C48.5626 26.9746 49.1652 22.9707 49.1412 20.8579C48.3592 23.139 47.3307 26.6273 47.403 29.3784Z" fill="#E31D1A"/>
<path d="M15.3055 45.7253C15.3055 45.7253 11.998 46.1073 11.998 48.3884C11.998 50.2901 14.2745 51.639 16.0367 52.1545C25.5415 54.9323 33.434 53.9067 41.0025 53.3298C35.1427 53.0787 19.0094 52.8623 14.8235 48.7569C13.6291 47.587 15.3055 45.728 15.3055 45.728V45.7253Z" fill="#E31D1A"/>
<path d="M38.9801 46.2621C38.2168 45.5115 36.6394 45.5543 35.3164 45.6905C36.7813 45.784 38.8462 46.0511 38.881 47.2744C38.881 47.2744 39.4702 46.7429 38.9801 46.2621Z" fill="#E31D1A"/>
<path d="M28.3022 48.4176C28.7441 49.267 30.7018 49.2643 32.0623 49.3071C31.1973 49.0587 28.7843 48.9652 28.5164 47.6404C28.5164 47.6404 28.0504 47.9342 28.3022 48.4176Z" fill="#E31D1A"/>
</g>
</g>
<defs>
<clipPath id="clip0_134_1438">
<rect width="73.8367" height="54" fill="white"/>
</clipPath>
</defs>
</svg>
