<svg width="51" height="127" viewBox="0 0 51 127" fill="none" xmlns="http://www.w3.org/2000/svg">
<path d="M23.4744 -3.8147e-06C30.6965 9.4628 42.584 30.9487 37.8055 46.4871C36.0218 52.2821 33.0987 55.2967 29.1641 57.5277C35.5406 71.5261 38.6145 83.5208 43.3078 97.9496L43.334 97.9452L44.5835 102.601C44.6188 102.723 48.0502 114.624 50.6542 126.48C45.7041 117.398 43.2587 112.122 39.8536 104.747L38.2809 100.134C32.0985 85.3878 28.4252 71.8033 25.4789 58.7622C16.5335 59.351 10.3853 49.7421 7.48068 43.5808C4.03927 36.2818 0.585991 20.0552 0.000966235 13.5955C3.01931 23.1849 11.1925 43.916 18.4585 50.0631C21.5365 52.6712 25.1396 52.0118 27.8221 50.3821C31.9002 47.8922 33.599 42.2012 33.5982 37.423C33.1971 27.8669 27.7843 10.3725 23.4744 -3.8147e-06Z" fill="#E31D1A" fill-opacity="0.72"/>
<path d="M18.3594 5.05163C25.3824 14.9543 29.5552 35.9805 27.2423 45.2896C25.2443 35.0445 20.2838 13.4848 18.3594 5.05163Z" fill="#E31D1A" fill-opacity="0.72"/>
<path d="M8.98122 9.93883C13.708 17.9182 20.2456 34.437 21.1946 46.0729C14.887 35.7708 11.0696 20.2943 8.98122 9.93883Z" fill="#E31D1A" fill-opacity="0.72"/>
</svg>
