<svg width="259" height="117" viewBox="0 0 259 117" fill="none" xmlns="http://www.w3.org/2000/svg">
<path d="M97 117C167.5 117 182.125 48 259 48H1C34.375 48 10.75 117 97 117Z" fill="url(#paint0_linear_138_2099)"/>
<rect width="258" height="48" fill="white"/>
<path d="M64.0024 41.3925C64.3688 41.9969 64.6045 42.6124 64.7133 43.2389C64.8222 43.8655 64.7931 44.4515 64.6263 44.9896C64.4594 45.5276 64.1366 46.0878 63.6542 46.6665L63.0086 47.4404C62.8309 47.6542 62.7039 47.7795 62.6241 47.82C62.5443 47.8606 62.4718 47.8716 62.4029 47.8532C62.3339 47.8348 62.1925 47.7279 61.9676 47.5362L59.8602 45.723L60.2084 45.3065C60.524 44.9269 60.7525 44.7021 60.8867 44.6284C61.0209 44.5547 61.1805 44.5399 61.3546 44.5842C61.5323 44.6247 61.7536 44.7611 62.022 44.9932L62.4174 45.336L63.4003 44.1566L59.5193 40.8139L58.5363 41.9932L58.8845 42.2918C59.2037 42.5682 59.396 42.7783 59.4576 42.922C59.5193 43.0657 59.5265 43.2205 59.4758 43.3864C59.425 43.5522 59.2545 43.8065 58.9643 44.1566L58.5799 44.621L56.2948 42.6529L57.47 41.2451C57.8327 40.8065 58.199 40.4674 58.569 40.2168C58.9353 39.9699 59.3778 39.8335 59.8929 39.8114C60.4079 39.7893 60.9883 39.8778 61.6303 40.0842L62.2034 38.5178L58.4275 37.0768L52.0002 44.7832L53.2697 45.8741L53.6107 45.465C53.8066 45.2328 53.9589 45.0928 54.0641 45.0485C54.1729 45.0043 54.2817 45.0006 54.3978 45.0338C54.5138 45.067 54.7061 45.2033 54.9781 45.4355L59.9691 49.7328C60.2774 49.9982 60.4515 50.1677 60.4986 50.2451C60.5712 50.3851 60.5857 50.5252 60.5421 50.6689C60.4986 50.8127 60.3463 51.0375 60.0887 51.347L59.8965 51.5792L61.166 52.6701L67.8218 44.6837L65.4243 40.5412L64.0024 41.3925Z" fill="#E31D1A"/>
<path d="M63.2371 34.9466C63.4257 34.8102 63.578 34.7402 63.6941 34.7291C63.8065 34.7181 63.9226 34.7513 64.0387 34.825C64.1548 34.8987 64.2962 35.0572 64.4594 35.2967L68.3405 40.9724C68.4928 41.1935 68.5762 41.363 68.5907 41.481C68.6089 41.6026 68.5835 41.7205 68.5218 41.8422C68.4602 41.9638 68.3332 42.0928 68.1446 42.2255L67.6767 42.5535L68.6234 43.9392L76.088 38.6726L74.8439 34.0547L73.2443 34.5117C73.4583 35.3041 73.5418 35.9933 73.4874 36.5793C73.4366 37.1653 73.277 37.6775 73.0086 38.1161C72.7438 38.551 72.2977 38.9933 71.6702 39.4355C71.4816 39.5682 71.3474 39.6419 71.2603 39.6567C71.1732 39.6714 71.1007 39.6567 71.0463 39.6235C70.9919 39.5903 70.8831 39.4503 70.7235 39.2218L66.8098 33.4945C66.6611 33.2807 66.5813 33.1038 66.5668 32.9712C66.5523 32.8385 66.5813 32.7058 66.6611 32.5805C66.7046 32.5142 66.8425 32.3999 67.0746 32.2341L67.4917 31.9392L66.545 30.5535L61.7717 33.922L62.7184 35.3078L63.2335 34.9429L63.2371 34.9466Z" fill="#E31D1A"/>
<path d="M78.9751 33.9147C79.7622 34.6813 80.6653 35.1825 81.6773 35.4221C82.6893 35.6616 83.7121 35.61 84.7459 35.2746C85.3371 35.083 85.8775 34.8103 86.3672 34.4601C86.8605 34.11 87.3066 33.6788 87.7056 33.1665L88.3984 33.8594L90.0632 33.3139L88.9098 29.6764C88.8119 29.3705 88.772 29.1567 88.7865 29.0314C88.801 28.9061 88.8518 28.8029 88.9352 28.7218C89.0186 28.6407 89.1964 28.5523 89.4684 28.4638L89.8819 28.3275L89.3668 26.7022L83.8355 28.5117L84.3505 30.137L84.9925 29.927C85.2863 29.8312 85.4894 29.7906 85.6055 29.809C85.7216 29.8275 85.8267 29.8791 85.9211 29.9712C85.9827 30.0375 86.0625 30.2181 86.1532 30.5093L86.2874 30.9331C86.3962 31.2722 86.4143 31.5633 86.3491 31.8066C86.2838 32.0498 86.0988 32.3078 85.8014 32.5842C85.5039 32.8606 85.1594 33.0596 84.7676 33.1886C84.2163 33.3692 83.6577 33.3729 83.0955 33.1997C82.5333 33.0265 82.0038 32.6469 81.5068 32.0683C81.0099 31.4896 80.6146 30.7415 80.328 29.8275C80.0632 28.9945 79.9689 28.2427 80.0451 27.5719C80.1213 26.9012 80.3316 26.341 80.6835 25.8877C81.0317 25.438 81.4669 25.1284 81.982 24.9589C82.3447 24.841 82.7437 24.8041 83.1789 24.852C83.6142 24.8999 84.0277 25.0289 84.4194 25.2353C84.8112 25.4454 85.3951 25.8877 86.1713 26.5658L87.5097 25.5781L85.2682 22.0658L84.1329 22.438L83.995 23.0535C83.5743 22.9503 83.0955 22.9171 82.5587 22.9466C82.0219 22.9798 81.5032 23.0756 81.0063 23.2378C79.9798 23.5732 79.1057 24.1444 78.3911 24.9515C77.6766 25.7587 77.2159 26.6911 77.0092 27.7488C76.8024 28.8103 76.8822 29.9085 77.2413 31.0437C77.604 32.1936 78.1808 33.1518 78.9715 33.9147H78.9751Z" fill="#E31D1A"/>
<path d="M90.3532 22.6369L90.5926 22.6074C90.7703 22.5926 90.9299 22.6074 91.0714 22.659C91.173 22.6848 91.2491 22.7511 91.2999 22.8617C91.3507 22.9723 91.3906 23.1602 91.416 23.4256L92.0181 30.2659C92.0507 30.6307 92.0543 30.8519 92.0326 30.9219C91.9854 31.0472 91.9056 31.1467 91.7968 31.2204C91.6844 31.2904 91.4885 31.342 91.2092 31.3641L90.6797 31.4121L90.8284 33.0926L96.6354 32.5656L96.4867 30.885L95.9426 30.9329C95.6416 30.9587 95.4385 30.9514 95.3369 30.9035C95.2317 30.8592 95.1519 30.7782 95.0975 30.6713C95.0431 30.5644 94.9959 30.299 94.9597 29.8789L94.7457 27.4575L95.7323 27.3691L100.001 32.2597L103.803 31.9133L103.654 30.2327L103.142 30.2806C102.91 30.3027 102.725 30.299 102.595 30.2696C102.461 30.2401 102.323 30.1848 102.185 30.1C102.047 30.0153 101.887 29.8826 101.713 29.6983L101.601 29.5767L98.906 26.8899C99.7693 26.6356 100.498 26.1934 101.09 25.5632C101.681 24.9329 101.938 24.1553 101.858 23.2302C101.808 22.6627 101.637 22.1614 101.351 21.7302C101.064 21.299 100.68 20.9563 100.201 20.702C99.7257 20.4477 99.2034 20.3003 98.6376 20.2634C98.0718 20.2266 97.5531 20.2302 97.0815 20.2745L89.7656 20.9379L89.918 22.67L90.3641 22.6295L90.3532 22.6369ZM96.2654 22.3641C96.9401 22.3015 97.4298 22.3125 97.7381 22.3973C98.0464 22.4821 98.2894 22.6295 98.4707 22.8433C98.6521 23.057 98.7573 23.3261 98.7863 23.643C98.8153 23.9931 98.7573 24.2953 98.6049 24.557C98.4526 24.815 98.2132 25.0288 97.8795 25.1872C97.5494 25.3494 97.038 25.46 96.3452 25.5263L94.5861 25.6848L94.3104 22.5411L96.2654 22.3641Z" fill="#E31D1A"/>
<path d="M108.899 30.8778C108.463 30.8226 108.199 30.7783 108.108 30.7415C107.967 30.6899 107.865 30.6198 107.811 30.5351C107.756 30.4503 107.734 30.3655 107.745 30.2697C107.756 30.1886 107.821 30.0228 107.945 29.7759L108.536 28.6076L112.127 29.0609L112.344 30.2071C112.413 30.5461 112.439 30.7673 112.428 30.8705C112.413 30.9921 112.337 31.0879 112.203 31.1542C112.069 31.2206 111.848 31.2353 111.536 31.1985L111.195 31.1653L110.988 32.8422L116.577 33.5498L116.784 31.8729C116.381 31.8287 116.113 31.7366 115.979 31.6039C115.845 31.4675 115.71 31.1395 115.58 30.6198L113.179 20.8238L110.524 20.4884L105.703 29.5658C105.562 29.8348 105.438 30.0191 105.341 30.1112C105.239 30.2034 105.119 30.2697 104.978 30.3029C104.836 30.3361 104.619 30.3361 104.325 30.3029L104.118 31.9798L108.692 32.5584L108.899 30.8852V30.8778ZM110.981 23.7869L111.717 27.2587L109.37 26.9601L110.981 23.7869Z" fill="#E31D1A"/>
<path d="M122.018 33.7711L121.485 33.5721C121.231 33.4763 121.061 33.3841 120.977 33.2883C120.894 33.1962 120.85 33.093 120.843 32.9861C120.836 32.8792 120.894 32.6544 121.017 32.3153L123.157 26.4148L124.249 36.4062L126.549 37.265L129.759 28.4087C129.882 28.0623 129.987 27.8485 130.067 27.7601C130.147 27.6716 130.252 27.6163 130.382 27.5979C130.513 27.5795 130.705 27.6163 130.959 27.7121L131.467 27.9038L132.04 26.319L127.434 24.5979L126.86 26.1827L127.405 26.3854C127.666 26.4812 127.833 26.5733 127.905 26.6618C127.978 26.7502 128.018 26.8645 128.021 27.0156C128.028 27.1188 127.967 27.3436 127.84 27.6937L126.36 31.7809L125.504 23.8718L120.97 22.1765L120.397 23.7613L120.995 23.9861C121.206 24.0635 121.351 24.1483 121.42 24.233C121.492 24.3178 121.532 24.432 121.543 24.5684C121.554 24.7048 121.514 24.9001 121.423 25.1507L119.044 31.7183C118.961 31.9468 118.87 32.1089 118.768 32.2011C118.667 32.2932 118.562 32.3448 118.446 32.3559C118.329 32.3669 118.141 32.3227 117.876 32.2232L117.397 32.0463L116.824 33.6311L121.445 35.3596L122.018 33.7748V33.7711Z" fill="#E31D1A"/>
<path d="M139.124 40.9134C139.715 40.4822 140.255 39.9036 140.741 39.1738C141.438 38.1271 141.83 37.0841 141.913 36.0522C141.996 35.0203 141.822 34.0731 141.38 33.2181C140.941 32.3593 140.132 31.5301 138.957 30.723L133.785 27.1738L132.856 28.5743L133.197 28.8102C133.494 29.0166 133.676 29.1714 133.737 29.2819C133.799 29.3925 133.821 29.5031 133.803 29.621C133.785 29.7389 133.672 29.9527 133.465 30.2623L129.795 35.7868C129.588 36.0964 129.436 36.2844 129.338 36.3507C129.204 36.4281 129.077 36.4576 128.953 36.4466C128.83 36.4318 128.627 36.3286 128.337 36.1296L127.996 35.8937L127.067 37.2942L131.626 40.4232C132.022 40.6959 132.588 41.0018 133.32 41.3409C134.053 41.68 134.655 41.8864 135.13 41.9601C135.761 42.0559 136.436 42.0153 137.158 41.8384C137.88 41.6615 138.536 41.3593 139.131 40.9281L139.124 40.9134ZM134.539 39.5239C133.941 39.4687 133.255 39.1775 132.482 38.6468C132.203 38.4552 132.036 38.3225 131.982 38.2451C131.927 38.1677 131.906 38.0792 131.917 37.9834C131.924 37.9208 132 37.7807 132.141 37.5669L136.327 31.2684L137.415 32.0166C138.108 32.492 138.565 32.9674 138.79 33.4466C139.015 33.9257 139.073 34.5227 138.96 35.2414C138.852 35.9601 138.551 36.6861 138.061 37.4232C137.564 38.1677 137.002 38.7205 136.374 39.0743C135.747 39.4281 135.134 39.5792 134.535 39.5239H134.539Z" fill="#E31D1A"/>
<path d="M145.464 35.5437L144.213 36.653L144.561 37.0584C144.76 37.2906 144.873 37.4638 144.898 37.5781C144.924 37.6923 144.913 37.8066 144.862 37.9172C144.811 38.0277 144.652 38.2009 144.383 38.4405L139.454 42.8115C139.153 43.0806 138.957 43.2317 138.874 43.2685C138.728 43.3201 138.587 43.3127 138.456 43.2464C138.322 43.1801 138.126 42.9958 137.865 42.6899L137.669 42.4614L136.418 43.5707L143.19 51.4577L147.582 49.6739L146.966 48.1186C146.324 48.3951 145.689 48.5425 145.061 48.5572C144.434 48.572 143.872 48.454 143.371 48.2071C142.871 47.9602 142.377 47.5511 141.888 46.9798L141.231 46.2169C141.05 46.0068 140.948 45.8594 140.919 45.7747C140.89 45.6899 140.89 45.6125 140.919 45.5498C140.948 45.4872 141.072 45.3545 141.293 45.1592L143.375 43.3127L143.727 43.7255C144.049 44.1014 144.234 44.3594 144.285 44.5068C144.336 44.6543 144.325 44.8127 144.26 44.986C144.191 45.1555 144.028 45.3582 143.759 45.5941L143.368 45.9405L144.365 47.1051L148.199 43.7071L147.201 42.5425L146.857 42.8484C146.541 43.1285 146.309 43.2906 146.157 43.3312C146.004 43.3717 145.856 43.357 145.703 43.2796C145.551 43.2022 145.326 42.9921 145.032 42.6494L144.641 42.1924L146.897 40.1911L148.09 41.5842C148.46 42.0154 148.739 42.4356 148.924 42.841C149.109 43.2464 149.175 43.7108 149.12 44.2341C149.066 44.7538 148.888 45.3213 148.594 45.9368L150.031 46.7476L152 43.1727L145.464 35.5621V35.5437Z" fill="#E31D1A"/>
<path d="M92.0764 47.9489C91.3764 46.9612 90.3717 46.4747 89.0224 46.6406C90.3572 47.1787 91.3655 48.4502 91.6557 49.8617C92.3739 53.3851 91.935 56.1897 90.622 59.2376C89.7224 60.8666 89.1675 62.0128 87.3684 62.3298C87.1871 62.3629 87.1907 62.186 87.1907 62.186C86.9876 62.315 86.8026 62.315 86.5922 62.2708C85.6347 62.0644 84.5973 60.7708 84.3978 59.702C83.4983 54.8924 85.1885 51.2217 87.0928 49.202C84.0025 50.2782 81.6521 55.2241 82.6133 60.2438C82.9361 61.9244 84.2527 63.546 85.8632 64.0067C83.5237 73.0067 82.7438 78.8187 82.1309 86.3887C84.8331 79.9723 85.8632 73.2204 87.5788 64.2094C89.7369 63.944 90.9484 62.3261 91.9023 60.487C93.9372 56.573 94.3869 51.0521 92.0728 47.9526L92.0764 47.9489Z" fill="#E31D1A"/>
<path d="M114.068 78.3804C115.058 73.7146 116.106 69.9664 116.57 65.1532C117.992 65.1642 119.262 64.803 120.658 63.5057C124.401 60.0266 124.543 52.3092 124.064 48.5979C123.607 52.0991 122.33 57.7121 120.937 60.3767C120.187 61.6777 118.83 62.9603 117.328 62.9971C116.342 63.0193 115.257 62.6323 114.829 61.4382C113.817 58.6224 114.851 51.6937 115.537 48.6089C114.681 50.4591 113.07 55.4197 112.86 57.948C112.682 60.0819 112.845 63.6642 115.373 64.9099C114.126 68.9234 112.99 73.1986 112.356 78.1851C108.478 77.964 104.594 77.9382 100.586 78.1261C101.358 74.9382 102.123 70.5156 102.907 66.7195C105.214 58.4161 106.2 50.4406 105.819 46.4087C101.859 49.5008 95.1739 61.2834 100.977 66.8264C100.049 70.8657 99.2 74.2821 98.5979 78.1519C97.575 78.2662 95.6164 78.55 93.5054 78.948C95.8558 78.9959 98.5326 78.9591 98.5326 78.9591C97.9704 82.2576 97.818 84.303 97.4916 87.1888C98.5036 84.5831 99.9617 80.5844 100.368 79.0217C104.35 79.0954 108.206 79.206 112.058 79.6888C111.826 82.2318 111.663 84.0524 111.583 87.303C112.744 83.647 113.683 79.8473 113.683 79.8473C120.52 80.3817 123.125 81.421 124.024 83.4959C124.604 84.8337 123.36 86.1642 122.903 86.588C124.441 86.5291 126.244 85.7256 126.603 84.7195C126.868 84.0487 126.77 83.1716 126.121 82.3129C123.687 79.077 118.119 78.7416 114.075 78.3841L114.068 78.3804ZM105.547 48.2809C104.775 54.4689 102.37 63.4062 101.775 65.3522C99.4176 60.5979 101.18 54.7269 105.547 48.2809Z" fill="#E31D1A"/>
<path d="M121.877 49.1689C121.075 51.7672 119.037 58.4159 117.97 61.5191C120.063 59.3483 122.232 52.9687 121.877 49.1689Z" fill="#E31D1A"/>
<path d="M116.2 60.782C117.771 57.4651 118.587 51.9405 118.554 49.0253C117.495 52.1727 116.103 56.986 116.2 60.782Z" fill="#E31D1A"/>
<path d="M72.7293 83.3373C72.7293 83.3373 68.2498 83.8643 68.2498 87.0117C68.2498 89.6358 71.3328 91.497 73.7195 92.2083C86.5922 96.0412 97.2813 94.626 107.532 93.8299C99.5954 93.4835 77.7456 93.1849 72.0764 87.5203C70.4587 85.9061 72.7293 83.341 72.7293 83.341V83.3373Z" fill="#E31D1A"/>
<path d="M104.793 84.078C103.759 83.0424 101.623 83.1013 99.8311 83.2893C101.815 83.4183 104.612 83.7868 104.659 85.4748C104.659 85.4748 105.457 84.7414 104.793 84.078Z" fill="#E31D1A"/>
<path d="M90.3315 87.0523C90.93 88.2243 93.5814 88.2206 95.424 88.2796C94.2525 87.9369 90.9844 87.8079 90.6217 85.9799C90.6217 85.9799 89.9906 86.3853 90.3315 87.0523Z" fill="#E31D1A"/>
<defs>
<linearGradient id="paint0_linear_138_2099" x1="130" y1="51.5" x2="130" y2="117" gradientUnits="userSpaceOnUse">
<stop stop-color="white"/>
<stop offset="1" stop-color="#F5D7D6"/>
</linearGradient>
</defs>
</svg>
