<svg width="20" height="20" viewBox="0 0 20 20" fill="none" xmlns="http://www.w3.org/2000/svg">
<path opacity="0.2" d="M17.4953 13.6C17.3739 14.5071 16.9273 15.3392 16.2383 15.9416C15.5494 16.544 14.6652 16.8757 13.75 16.875C10.9321 16.875 8.22957 15.7556 6.23699 13.763C4.24442 11.7704 3.125 9.06794 3.125 6.25001C3.1243 5.33486 3.456 4.4506 4.05841 3.76168C4.66082 3.07276 5.49293 2.62608 6.4 2.5047C6.53409 2.48877 6.66973 2.5167 6.78662 2.5843C6.90351 2.6519 6.99537 2.75554 7.04844 2.8797L8.69922 6.5672C8.73978 6.66191 8.7563 6.76518 8.7473 6.86782C8.7383 6.97045 8.70407 7.06927 8.64766 7.15548L6.97813 9.14064C6.9189 9.23 6.88388 9.3332 6.87649 9.44015C6.86909 9.5471 6.88958 9.65413 6.93594 9.75079C7.58203 11.0735 8.94922 12.4242 10.2758 13.0641C10.373 13.1102 10.4805 13.1303 10.5878 13.1222C10.695 13.1141 10.7983 13.0782 10.8875 13.018L12.8406 11.3539C12.9272 11.2963 13.0267 11.2612 13.1303 11.2518C13.2338 11.2424 13.3381 11.259 13.4336 11.3L17.118 12.9508C17.2427 13.0035 17.347 13.0953 17.415 13.2124C17.4831 13.3295 17.5112 13.4655 17.4953 13.6Z" fill="#717171"/>
<path d="M17.3727 12.3797L13.6922 10.7305L13.682 10.7258C13.491 10.6441 13.2825 10.6113 13.0756 10.6304C12.8687 10.6495 12.6698 10.7198 12.4969 10.8352C12.4765 10.8486 12.457 10.8632 12.4383 10.8789L10.5367 12.5C9.33204 11.9148 8.08829 10.6805 7.50313 9.4914L9.12657 7.56093C9.14219 7.5414 9.15704 7.52187 9.1711 7.50078C9.28394 7.32836 9.35239 7.13071 9.37039 6.92544C9.38838 6.72017 9.35534 6.51363 9.27423 6.32421V6.31484L7.62032 2.62812C7.51309 2.38067 7.3287 2.17454 7.09468 2.04049C6.86067 1.90645 6.58958 1.85168 6.32188 1.88437C5.26326 2.02367 4.29155 2.54356 3.58824 3.34694C2.88492 4.15032 2.49809 5.18225 2.50001 6.24999C2.50001 12.4531 7.54688 17.5 13.75 17.5C14.8177 17.5019 15.8497 17.1151 16.6531 16.4118C17.4564 15.7084 17.9763 14.7367 18.1156 13.6781C18.1484 13.4105 18.0937 13.1395 17.9598 12.9055C17.8259 12.6715 17.62 12.487 17.3727 12.3797ZM13.75 16.25C11.0987 16.2471 8.55687 15.1926 6.68214 13.3179C4.8074 11.4431 3.7529 8.90127 3.75001 6.24999C3.74707 5.4871 4.02192 4.74921 4.52324 4.17414C5.02456 3.59907 5.71806 3.22614 6.47423 3.12499C6.47392 3.12811 6.47392 3.13125 6.47423 3.13437L8.11485 6.80624L6.50001 8.73906C6.48362 8.75792 6.46873 8.77803 6.45548 8.79921C6.33791 8.97962 6.26894 9.18733 6.25525 9.40223C6.24157 9.61713 6.28362 9.83191 6.37735 10.0258C7.08516 11.4734 8.54376 12.9211 10.007 13.6281C10.2023 13.721 10.4184 13.7616 10.634 13.746C10.8497 13.7304 11.0576 13.6591 11.2375 13.5391C11.2576 13.5255 11.2769 13.5109 11.2953 13.4953L13.1945 11.875L16.8664 13.5195C16.8664 13.5195 16.8727 13.5195 16.875 13.5195C16.7751 14.2768 16.4027 14.9717 15.8275 15.4742C15.2524 15.9768 14.5138 16.2526 13.75 16.25Z" fill="#717171"/>
</svg>
