<svg width="67" height="122" viewBox="0 0 67 122" fill="none" xmlns="http://www.w3.org/2000/svg">
<path d="M56.7607 23.1162C60.2602 23.2485 62.6156 24.8989 63.9902 27.6982L63.9795 27.7061C68.5917 36.5387 65.1815 50.3945 58.3994 59.5127C55.2183 63.7979 51.4724 67.4145 45.875 67.2031C37.8116 89.4148 32.419 106.163 22.9121 121.371C27.5796 102.371 31.9503 87.9107 41.5957 65.9834C37.6893 64.1505 35.0068 59.4856 34.876 55.0791C34.4929 41.9189 42.5008 30.3057 50.8018 28.8379C45.1297 33.1921 39.3241 41.8339 39.6367 54.4346C39.7053 57.2345 41.8118 60.95 44.1621 61.8682C44.6789 62.067 45.1494 62.1429 45.7188 61.8984C45.7171 61.9081 45.6427 62.3467 46.1123 62.3369C50.8174 62.2695 52.6998 59.5828 55.6562 55.8096C60.247 48.5976 62.5143 41.6448 62.1348 32.3896C61.9765 28.6808 59.9343 25.0327 56.7607 23.1162Z" fill="#E31D1A" fill-opacity="0.72"/>
<path fill-rule="evenodd" clip-rule="evenodd" d="M32.7246 0C32.3028 9.54443 27.4015 27.8575 19.3105 46.5078C16.2451 55.1225 13.018 65.2089 10.1758 72.4062L9.37598 74.4277C7.91806 77.9473 3.21184 86.8158 0 92.5742C1.7014 85.9382 2.72297 81.2081 5.10938 73.6846L5.52441 71.8193C8.18996 62.974 11.2833 55.267 14.7666 46.1318C3.01021 31.2927 22.4642 5.9363 32.7246 0ZM31.4785 4.28613C19.1782 17.9263 13.1513 31.071 17.1133 42.9463C19.1366 38.592 27.6605 18.4924 31.4785 4.28613Z" fill="#E31D1A" fill-opacity="0.72"/>
</svg>
